<svg width="16" height="16" viewBox="0 0 16 16" fill="none" xmlns="http://www.w3.org/2000/svg">
<path d="M15.2806 14.2194C15.3502 14.2891 15.4055 14.3718 15.4432 14.4628C15.4809 14.5539 15.5003 14.6515 15.5003 14.75C15.5003 14.8485 15.4809 14.9461 15.4432 15.0372C15.4055 15.1282 15.3502 15.2109 15.2806 15.2806C15.2109 15.3503 15.1281 15.4056 15.0371 15.4433C14.9461 15.481 14.8485 15.5004 14.7499 15.5004C14.6514 15.5004 14.5538 15.481 14.4628 15.4433C14.3717 15.4056 14.289 15.3503 14.2193 15.2806L7.99993 9.06031L1.78055 15.2806C1.63982 15.4214 1.44895 15.5004 1.24993 15.5004C1.05091 15.5004 0.860034 15.4214 0.719304 15.2806C0.578573 15.1399 0.499512 14.949 0.499512 14.75C0.499512 14.551 0.578573 14.3601 0.719304 14.2194L6.93962 8L0.719304 1.78063C0.578573 1.6399 0.499512 1.44902 0.499512 1.25C0.499512 1.05098 0.578573 0.860107 0.719304 0.719376C0.860034 0.578646 1.05091 0.499584 1.24993 0.499584C1.44895 0.499584 1.63982 0.578646 1.78055 0.719376L7.99993 6.93969L14.2193 0.719376C14.36 0.578646 14.5509 0.499584 14.7499 0.499584C14.949 0.499584 15.1398 0.578646 15.2806 0.719376C15.4213 0.860107 15.5003 1.05098 15.5003 1.25C15.5003 1.44902 15.4213 1.6399 15.2806 1.78063L9.06024 8L15.2806 14.2194Z" fill="black"/>
</svg>
