<svg width="40" height="40" viewBox="0 0 40 40" fill="none" xmlns="http://www.w3.org/2000/svg">
<rect width="40" height="40" rx="20" fill="url(#paint0_linear_2578_7533)"/>
<g clip-path="url(#clip0_2578_7533)">
<path d="M23.3501 26.5906C23.7813 26.4208 24.1991 26.2189 24.6001 25.9867V29.15C24.6001 29.3158 24.5343 29.4747 24.4171 29.5919C24.2999 29.7092 24.1409 29.775 23.9751 29.775C23.8094 29.775 23.6504 29.7092 23.5332 29.5919C23.416 29.4747 23.3501 29.3158 23.3501 29.15V26.5906ZM24.2689 19.682L19.8939 17.3484C19.7479 17.2739 19.5785 17.2596 19.4222 17.3088C19.2658 17.358 19.135 17.4666 19.058 17.6112C18.9809 17.7559 18.9638 17.9251 19.0102 18.0822C19.0567 18.2394 19.1631 18.372 19.3064 18.4516L22.9595 20.4L24.2876 19.6922L24.2689 19.682ZM29.2689 17.3484L19.8939 12.3484C19.8035 12.3003 19.7026 12.2751 19.6001 12.2751C19.4977 12.2751 19.3968 12.3003 19.3064 12.3484L9.9314 17.3484C9.8314 17.4017 9.74777 17.4812 9.68946 17.5784C9.63115 17.6755 9.60034 17.7867 9.60034 17.9C9.60034 18.0133 9.63115 18.1245 9.68946 18.2216C9.74777 18.3188 9.8314 18.3983 9.9314 18.4516L12.1001 19.6086V23.3914C12.0995 23.6984 12.2125 23.9948 12.4173 24.2234C13.4408 25.3633 15.7337 27.275 19.6001 27.275C20.8821 27.2856 22.1545 27.0534 23.3501 26.5906V20.6086L22.9595 20.4L19.6001 22.1914L13.0244 18.6812L11.5533 17.9L19.6001 13.6086L27.647 17.9L26.1798 18.6812H26.1751L24.2876 19.6922C24.3827 19.7471 24.4616 19.826 24.5164 19.921C24.5713 20.0161 24.6002 20.1239 24.6001 20.2336V25.9867C25.4152 25.5162 26.1516 24.9213 26.783 24.2234C26.9878 23.9948 27.1008 23.6984 27.1001 23.3914V19.6086L29.2689 18.4516C29.3689 18.3983 29.4525 18.3188 29.5108 18.2216C29.5691 18.1245 29.6 18.0133 29.6 17.9C29.6 17.7867 29.5691 17.6755 29.5108 17.5784C29.4525 17.4812 29.3689 17.4017 29.2689 17.3484Z" fill="white"/>
</g>
<defs>
<linearGradient id="paint0_linear_2578_7533" x1="20" y1="0" x2="20" y2="40" gradientUnits="userSpaceOnUse">
<stop stop-color="#55B4FF"/>
<stop offset="1" stop-color="#1A9AFF"/>
</linearGradient>
<clipPath id="clip0_2578_7533">
<rect width="20" height="20" fill="white" transform="translate(9.6001 10.4)"/>
</clipPath>
</defs>
</svg>
