<svg width="40" height="40" viewBox="0 0 40 40" fill="none" xmlns="http://www.w3.org/2000/svg">
<rect width="40" height="40" rx="20" fill="url(#paint0_linear_2578_7527)"/>
<rect x="0.2175" y="0.2175" width="39.565" height="39.565" rx="19.7825" stroke="black" stroke-opacity="0.1" stroke-width="0.435"/>
<path d="M28.1304 24.5906C28.5622 23.695 28.7741 22.7092 28.7485 21.7152C28.7229 20.7212 28.4605 19.7476 27.9831 18.8754C27.5057 18.0032 26.827 17.2574 26.0036 16.7001C25.1801 16.1428 24.2355 15.7901 23.2483 15.6711C22.9182 14.9098 22.4397 14.2218 21.8409 13.6474C21.242 13.0729 20.5347 12.6235 19.7603 12.3253C18.986 12.0271 18.1599 11.8861 17.3305 11.9105C16.501 11.9349 15.6847 12.1242 14.9292 12.4675C14.1736 12.8107 13.494 13.301 12.93 13.9096C12.366 14.5183 11.9288 15.2332 11.644 16.0126C11.3592 16.792 11.2324 17.6204 11.2711 18.4493C11.3098 19.2782 11.5132 20.0911 11.8694 20.8406L11.3015 22.7711C11.238 22.9866 11.2337 23.2152 11.2892 23.433C11.3446 23.6507 11.4577 23.8494 11.6166 24.0083C11.7755 24.1672 11.9742 24.2803 12.1919 24.3357C12.4097 24.3912 12.6383 24.3869 12.8538 24.3234L14.7843 23.7555C15.4037 24.0552 16.0688 24.2493 16.7522 24.3297C17.084 25.1068 17.5698 25.8085 18.1804 26.3926C18.791 26.9766 19.5136 27.4308 20.3047 27.7276C21.0958 28.0244 21.9388 28.1578 22.7829 28.1196C23.6269 28.0814 24.4545 27.8725 25.2155 27.5055L27.146 28.0734C27.3615 28.1369 27.5901 28.1412 27.8079 28.0857C28.0256 28.0303 28.2243 27.9172 28.3832 27.7583C28.5421 27.5994 28.6552 27.4007 28.7106 27.183C28.7661 26.9652 28.7618 26.7366 28.6983 26.5211L28.1304 24.5906ZM20.3124 21.875C20.127 21.875 19.9457 21.82 19.7916 21.717C19.6374 21.614 19.5172 21.4676 19.4463 21.2963C19.3753 21.125 19.3567 20.9365 19.3929 20.7546C19.4291 20.5727 19.5184 20.4057 19.6495 20.2746C19.7806 20.1435 19.9476 20.0542 20.1295 20.018C20.3114 19.9818 20.4999 20.0004 20.6712 20.0714C20.8425 20.1423 20.9889 20.2625 21.0919 20.4167C21.1949 20.5708 21.2499 20.7521 21.2499 20.9375C21.2499 21.1861 21.1511 21.4246 20.9753 21.6004C20.7995 21.7762 20.561 21.875 20.3124 21.875ZM16.2499 21.875C16.2503 22.2497 16.2843 22.6236 16.3515 22.9922C15.9298 22.8934 15.523 22.7397 15.1413 22.5352C14.9975 22.4582 14.8292 22.4405 14.6726 22.4859L12.4999 23.125L13.1382 20.9563C13.1836 20.7996 13.1659 20.6313 13.089 20.4875C12.4486 19.3257 12.296 17.9572 12.6647 16.6829C13.0334 15.4086 13.8932 14.3329 15.055 13.6926C16.2167 13.0522 17.5853 12.8996 18.8596 13.2683C20.1339 13.637 21.2095 14.4968 21.8499 15.6586C20.314 15.8213 18.8924 16.5461 17.8587 17.6937C16.8249 18.8412 16.2519 20.3305 16.2499 21.875ZM24.6874 21.875C24.502 21.875 24.3207 21.82 24.1666 21.717C24.0124 21.614 23.8922 21.4676 23.8213 21.2963C23.7503 21.125 23.7317 20.9365 23.7679 20.7546C23.8041 20.5727 23.8934 20.4057 24.0245 20.2746C24.1556 20.1435 24.3226 20.0542 24.5045 20.018C24.6864 19.9818 24.8749 20.0004 25.0462 20.0714C25.2175 20.1423 25.3639 20.2625 25.4669 20.4167C25.5699 20.5708 25.6249 20.7521 25.6249 20.9375C25.6249 21.1861 25.5261 21.4246 25.3503 21.6004C25.1745 21.7762 24.936 21.875 24.6874 21.875Z" fill="white"/>
<defs>
<linearGradient id="paint0_linear_2578_7527" x1="20" y1="0" x2="20" y2="40" gradientUnits="userSpaceOnUse">
<stop stop-color="#7686FF"/>
<stop offset="1" stop-color="#334BFF"/>
</linearGradient>
</defs>
</svg>
