<svg width="40" height="40" viewBox="0 0 40 40" fill="none" xmlns="http://www.w3.org/2000/svg">
<rect width="40" height="40" rx="20" fill="url(#paint0_linear_2578_7540)"/>
<rect x="0.2175" y="0.2175" width="39.565" height="39.565" rx="19.7825" stroke="black" stroke-opacity="0.1" stroke-width="0.435"/>
<path d="M23.125 27.5C23.125 27.6658 23.0592 27.8247 22.9419 27.9419C22.8247 28.0592 22.6658 28.125 22.5 28.125H17.5C17.3342 28.125 17.1753 28.0592 17.0581 27.9419C16.9408 27.8247 16.875 27.6658 16.875 27.5C16.875 27.3342 16.9408 27.1753 17.0581 27.0581C17.1753 26.9408 17.3342 26.875 17.5 26.875H22.5C22.6658 26.875 22.8247 26.9408 22.9419 27.0581C23.0592 27.1753 23.125 27.3342 23.125 27.5ZM28.125 15V23.75C28.125 24.2473 27.9275 24.7242 27.5758 25.0758C27.2242 25.4275 26.7473 25.625 26.25 25.625H13.75C13.2527 25.625 12.7758 25.4275 12.4242 25.0758C12.0725 24.7242 11.875 24.2473 11.875 23.75V15C11.875 14.5027 12.0725 14.0258 12.4242 13.6742C12.7758 13.3225 13.2527 13.125 13.75 13.125H26.25C26.7473 13.125 27.2242 13.3225 27.5758 13.6742C27.9275 14.0258 28.125 14.5027 28.125 15ZM22.8125 19.375C22.8125 19.2746 22.7882 19.1756 22.7419 19.0866C22.6955 18.9975 22.6283 18.9209 22.5461 18.8633L19.4211 16.6758C19.3275 16.6102 19.2176 16.5715 19.1035 16.564C18.9894 16.5565 18.8755 16.5805 18.774 16.6332C18.6726 16.686 18.5876 16.7656 18.5283 16.8633C18.4689 16.961 18.4375 17.0732 18.4375 17.1875V21.5625C18.4375 21.6768 18.4689 21.789 18.5283 21.8867C18.5876 21.9844 18.6726 22.064 18.774 22.1168C18.8755 22.1695 18.9894 22.1935 19.1035 22.186C19.2176 22.1785 19.3275 22.1398 19.4211 22.0742L22.5461 19.8867C22.6283 19.8291 22.6955 19.7525 22.7419 19.6634C22.7882 19.5744 22.8125 19.4754 22.8125 19.375Z" fill="white"/>
<defs>
<linearGradient id="paint0_linear_2578_7540" x1="20" y1="0" x2="20" y2="40" gradientUnits="userSpaceOnUse">
<stop stop-color="#B974FF"/>
<stop offset="1" stop-color="#9933FF"/>
</linearGradient>
</defs>
</svg>
