<svg width="60" height="60" viewBox="0 0 60 60" fill="none" xmlns="http://www.w3.org/2000/svg">
<rect width="60" height="60" rx="15" fill="#E9ECF3"/>
<path d="M41.0266 23.0938H38.4016V21.3438C38.4016 21.1117 38.3094 20.8891 38.1453 20.725C37.9812 20.5609 37.7587 20.4688 37.5266 20.4688H21.7766C21.5445 20.4688 21.322 20.5609 21.1579 20.725C20.9938 20.8891 20.9016 21.1117 20.9016 21.3438V23.0938H18.2766C17.8125 23.0938 17.3674 23.2781 17.0392 23.6063C16.711 23.9345 16.5266 24.3796 16.5266 24.8438V26.5938C16.5266 27.7541 16.9875 28.8669 17.808 29.6873C18.2143 30.0936 18.6966 30.4159 19.2274 30.6357C19.7582 30.8556 20.3271 30.9688 20.9016 30.9688H21.3008C21.8163 32.6022 22.799 34.0488 24.1276 35.1297C25.4563 36.2107 27.0725 36.8787 28.7766 37.0511V39.7188H26.1516C25.9195 39.7188 25.697 39.8109 25.5329 39.975C25.3688 40.1391 25.2766 40.3617 25.2766 40.5938C25.2766 40.8258 25.3688 41.0484 25.5329 41.2125C25.697 41.3766 25.9195 41.4688 26.1516 41.4688H33.1516C33.3837 41.4688 33.6062 41.3766 33.7703 41.2125C33.9344 41.0484 34.0266 40.8258 34.0266 40.5938C34.0266 40.3617 33.9344 40.1391 33.7703 39.975C33.6062 39.8109 33.3837 39.7188 33.1516 39.7188H30.5266V37.0478C34.02 36.6945 36.9185 34.2434 37.9729 30.9688H38.4016C39.5619 30.9688 40.6747 30.5078 41.4952 29.6873C42.3157 28.8669 42.7766 27.7541 42.7766 26.5938V24.8438C42.7766 24.3796 42.5922 23.9345 42.264 23.6063C41.9359 23.2781 41.4907 23.0938 41.0266 23.0938ZM20.9016 29.2188C20.2054 29.2188 19.5377 28.9422 19.0455 28.4499C18.5532 27.9576 18.2766 27.2899 18.2766 26.5938V24.8438H20.9016V28.3438C20.9016 28.6354 20.9158 28.9271 20.9443 29.2188H20.9016ZM41.0266 26.5938C41.0266 27.2899 40.75 27.9576 40.2578 28.4499C39.7655 28.9422 39.0978 29.2188 38.4016 29.2188H38.3469C38.3828 28.8955 38.4011 28.5705 38.4016 28.2453V24.8438H41.0266V26.5938Z" fill="url(#paint0_linear_2578_439)"/>
<defs>
<linearGradient id="paint0_linear_2578_439" x1="29.6516" y1="20.4688" x2="29.6516" y2="41.4688" gradientUnits="userSpaceOnUse">
<stop stop-color="#637599"/>
<stop offset="1" stop-color="#41506F"/>
</linearGradient>
</defs>
</svg>
