<svg width="60" height="60" viewBox="0 0 60 60" fill="none" xmlns="http://www.w3.org/2000/svg">
<rect width="60" height="60" rx="15" fill="#FEECDF"/>
<path d="M42.0313 26.0487C41.9494 25.9551 41.8485 25.8801 41.7354 25.8287C41.6222 25.7772 41.4994 25.7504 41.3751 25.7501H36.5221L30.6563 19.0487C30.5742 18.9556 30.4732 18.881 30.3601 18.8299C30.2469 18.7789 30.1242 18.7524 30.0001 18.7524C29.8759 18.7524 29.7532 18.7789 29.64 18.8299C29.5269 18.881 29.4259 18.9556 29.3438 19.0487L23.478 25.7501H18.6251C18.5004 25.7501 18.3771 25.7767 18.2635 25.8282C18.15 25.8798 18.0487 25.955 17.9666 26.0488C17.8845 26.1426 17.8233 26.2529 17.7873 26.3723C17.7513 26.4917 17.7412 26.6174 17.7577 26.741L19.406 39.107C19.4635 39.5266 19.6707 39.9114 19.9895 40.1904C20.3082 40.4693 20.7171 40.6237 21.1407 40.6251H38.8594C39.283 40.6237 39.6919 40.4693 40.0106 40.1904C40.3294 39.9114 40.5366 39.5266 40.5941 39.107L42.2424 26.741C42.2586 26.6172 42.2482 26.4914 42.2118 26.372C42.1754 26.2526 42.1138 26.1423 42.0313 26.0487ZM24.9251 37.1251C24.8955 37.1267 24.866 37.1267 24.8365 37.1251C24.6188 37.1262 24.4085 37.0461 24.2467 36.9005C24.0849 36.7549 23.9832 36.5542 23.9615 36.3376L23.349 30.2126C23.3258 29.9817 23.3952 29.751 23.5421 29.5713C23.689 29.3917 23.9012 29.2777 24.1321 29.2545C24.363 29.2313 24.5937 29.3007 24.7733 29.4476C24.953 29.5945 25.067 29.8067 25.0902 30.0376L25.7027 36.1626C25.7272 36.3933 25.6591 36.6244 25.5132 36.8049C25.3674 36.9854 25.1558 37.1006 24.9251 37.1251ZM30.8751 36.2501C30.8751 36.4822 30.7829 36.7047 30.6188 36.8688C30.4547 37.0329 30.2321 37.1251 30.0001 37.1251C29.768 37.1251 29.5454 37.0329 29.3813 36.8688C29.2172 36.7047 29.1251 36.4822 29.1251 36.2501V30.1251C29.1251 29.893 29.2172 29.6705 29.3813 29.5064C29.5454 29.3423 29.768 29.2501 30.0001 29.2501C30.2321 29.2501 30.4547 29.3423 30.6188 29.5064C30.7829 29.6705 30.8751 29.893 30.8751 30.1251V36.2501ZM25.8033 25.7501L30.0001 20.954L34.1968 25.7501H25.8033ZM36.6457 30.2126L36.0332 36.3376C36.0115 36.5532 35.9106 36.7532 35.7499 36.8986C35.5893 37.0441 35.3804 37.1248 35.1637 37.1251C35.1341 37.1267 35.1046 37.1267 35.0751 37.1251C34.9607 37.1136 34.8498 37.0797 34.7485 37.0253C34.6473 36.971 34.5578 36.8972 34.4851 36.8082C34.4123 36.7192 34.3579 36.6168 34.3247 36.5068C34.2916 36.3968 34.2804 36.2813 34.2919 36.167L34.9044 30.042C34.9276 29.8111 35.0416 29.5988 35.2213 29.452C35.401 29.3051 35.6317 29.2356 35.8626 29.2588C36.0935 29.282 36.3057 29.396 36.4526 29.5757C36.5994 29.7554 36.6689 29.9861 36.6457 30.217V30.2126Z" fill="url(#paint0_linear_2578_6300)"/>
<defs>
<linearGradient id="paint0_linear_2578_6300" x1="29.9999" y1="18.7524" x2="29.9999" y2="40.6251" gradientUnits="userSpaceOnUse">
<stop stop-color="#FF9500"/>
<stop offset="1" stop-color="#FF8000"/>
</linearGradient>
</defs>
</svg>
