<svg width="50" height="50" viewBox="0 0 50 50" fill="none" xmlns="http://www.w3.org/2000/svg">
<rect y="0.000488281" width="50" height="50" rx="14" fill="url(#paint0_linear_2578_6620)"/>
<path d="M37.1306 29.647C37.131 29.6422 37.131 29.6375 37.1306 29.6328L35.4659 21.0842C35.4659 21.0781 35.4659 21.0721 35.4659 21.066C35.209 19.6624 34.4683 18.3933 33.3726 17.4793C32.2769 16.5653 30.8955 16.0641 29.4687 16.063H20.52C19.0891 16.0624 17.7039 16.5664 16.6079 17.4863C15.5119 18.4062 14.7754 19.6831 14.5278 21.0924L12.8713 29.6328C12.8708 29.6375 12.8708 29.6422 12.8713 29.647C12.7365 30.4126 12.8492 31.2012 13.1931 31.8984C13.5369 32.5956 14.0941 33.1651 14.7836 33.5241C15.4731 33.8831 16.2591 34.013 17.0275 33.895C17.7958 33.7769 18.5066 33.417 19.0565 32.8675L19.092 32.8299L23.1231 28.2505H26.8809L30.9139 32.8299C30.9251 32.8431 30.9373 32.8553 30.9495 32.8675C31.6348 33.5514 32.563 33.9362 33.5312 33.938C34.0649 33.9376 34.592 33.8205 35.0756 33.5947C35.5592 33.3689 35.9875 33.04 36.3304 32.6311C36.6733 32.2221 36.9225 31.7431 37.0606 31.2276C37.1987 30.7121 37.2222 30.1726 37.1295 29.647H37.1306ZM22.5624 23.3755H21.7499V24.188C21.7499 24.4035 21.6643 24.6101 21.512 24.7625C21.3596 24.9149 21.1529 25.0005 20.9374 25.0005C20.7219 25.0005 20.5153 24.9149 20.3629 24.7625C20.2105 24.6101 20.1249 24.4035 20.1249 24.188V23.3755H19.3124C19.0969 23.3755 18.8903 23.2899 18.7379 23.1375C18.5855 22.9851 18.4999 22.7785 18.4999 22.563C18.4999 22.3475 18.5855 22.1408 18.7379 21.9885C18.8903 21.8361 19.0969 21.7505 19.3124 21.7505H20.1249V20.938C20.1249 20.7225 20.2105 20.5158 20.3629 20.3635C20.5153 20.2111 20.7219 20.1255 20.9374 20.1255C21.1529 20.1255 21.3596 20.2111 21.512 20.3635C21.6643 20.5158 21.7499 20.7225 21.7499 20.938V21.7505H22.5624C22.7779 21.7505 22.9846 21.8361 23.137 21.9885C23.2893 22.1408 23.3749 22.3475 23.3749 22.563C23.3749 22.7785 23.2893 22.9851 23.137 23.1375C22.9846 23.2899 22.7779 23.3755 22.5624 23.3755ZM26.6249 22.563C26.6249 22.3475 26.7105 22.1408 26.8629 21.9885C27.0153 21.8361 27.2219 21.7505 27.4374 21.7505H29.8749C30.0904 21.7505 30.2971 21.8361 30.4495 21.9885C30.6018 22.1408 30.6874 22.3475 30.6874 22.563C30.6874 22.7785 30.6018 22.9851 30.4495 23.1375C30.2971 23.2899 30.0904 23.3755 29.8749 23.3755H27.4374C27.2219 23.3755 27.0153 23.2899 26.8629 23.1375C26.7105 22.9851 26.6249 22.7785 26.6249 22.563ZM35.1938 31.4467C35.0416 31.6658 34.8474 31.8525 34.6225 31.996C34.3976 32.1395 34.1464 32.2369 33.8836 32.2825C33.5656 32.3381 33.239 32.3175 32.9306 32.2223C32.6221 32.1272 32.3407 31.9602 32.1093 31.7351L29.0421 28.2505H29.4687C30.506 28.2506 31.5262 27.986 32.4326 27.4816C33.339 26.9772 34.1017 26.2497 34.6484 25.3681L35.536 29.9385C35.5812 30.2 35.5743 30.4679 35.5155 30.7267C35.4568 30.9856 35.3474 31.2302 35.1938 31.4467Z" fill="white"/>
<defs>
<linearGradient id="paint0_linear_2578_6620" x1="25" y1="0.000488281" x2="25" y2="50.0005" gradientUnits="userSpaceOnUse">
<stop stop-color="#B974FF"/>
<stop offset="1" stop-color="#9933FF"/>
</linearGradient>
</defs>
</svg>
