<svg width="60" height="60" viewBox="0 0 60 60" fill="none" xmlns="http://www.w3.org/2000/svg">
<rect width="60" height="60" rx="15" fill="#EBE8FF"/>
<path d="M29.4946 23.8753C29.4946 23.7023 29.5459 23.5331 29.6421 23.3892C29.7382 23.2453 29.8749 23.1332 30.0348 23.067C30.1947 23.0007 30.3706 22.9834 30.5403 23.0172C30.7101 23.0509 30.866 23.1343 30.9883 23.2566C31.1107 23.379 31.1941 23.5349 31.2278 23.7046C31.2616 23.8744 31.2442 24.0503 31.178 24.2102C31.1118 24.3701 30.9996 24.5067 30.8558 24.6029C30.7119 24.699 30.5427 24.7503 30.3696 24.7503C30.1376 24.7503 29.915 24.6582 29.7509 24.4941C29.5868 24.33 29.4946 24.1074 29.4946 23.8753ZM32.1196 30.8753C32.1196 31.0484 32.1709 31.2176 32.2671 31.3615C32.3632 31.5054 32.4999 31.6175 32.6598 31.6837C32.8197 31.75 32.9956 31.7673 33.1653 31.7335C33.3351 31.6998 33.491 31.6164 33.6133 31.4941C33.7357 31.3717 33.8191 31.2158 33.8528 31.0461C33.8866 30.8763 33.8692 30.7004 33.803 30.5405C33.7368 30.3806 33.6246 30.244 33.4808 30.1478C33.3369 30.0517 33.1677 30.0003 32.9946 30.0003C32.7626 30.0003 32.54 30.0925 32.3759 30.2566C32.2118 30.4207 32.1196 30.6433 32.1196 30.8753ZM37.4243 34.7549C38.5315 33.8251 39.4159 32.6586 40.0122 31.3414C40.6085 30.0243 40.9015 28.5901 40.8696 27.1446C40.8696 27.0644 40.8663 26.9845 40.8598 26.905C40.8528 26.7938 40.8037 26.6894 40.7224 26.6132C40.6411 26.537 40.5337 26.4947 40.4223 26.4949H37.7798L35.2499 29.53C35.5659 30.0626 35.6835 30.6897 35.5818 31.3006C35.4801 31.9114 35.1658 32.4666 34.6943 32.8681C34.2228 33.2696 33.6246 33.4915 33.0054 33.4945C32.3861 33.4976 31.7857 33.2816 31.3103 32.8848C30.8349 32.488 30.5151 31.9358 30.4074 31.326C30.2997 30.7162 30.4111 30.088 30.7218 29.5523C31.0326 29.0167 31.5227 28.6081 32.1055 28.3989C32.6883 28.1897 33.3264 28.1932 33.9068 28.4089L36.697 25.0599C36.7796 24.9622 36.8827 24.8839 36.9989 24.8305C37.1152 24.777 37.2417 24.7496 37.3696 24.7503H39.9006C39.9708 24.7504 40.04 24.7336 40.1023 24.7013C40.1646 24.669 40.2183 24.6222 40.2587 24.5649C40.2991 24.5075 40.3252 24.4412 40.3346 24.3716C40.344 24.3021 40.3366 24.2313 40.3129 24.1652C39.0398 20.5941 35.7137 17.9691 31.7631 17.7591H31.6985C31.6397 17.7569 31.5811 17.7666 31.5261 17.7876C31.4711 17.8086 31.4209 17.8404 31.3785 17.8813C31.3361 17.9221 31.3024 17.9711 31.2794 18.0253C31.2564 18.0795 31.2446 18.1377 31.2446 18.1966V21.3958C31.8284 21.6022 32.3205 22.0084 32.6338 22.5425C32.9471 23.0766 33.0615 23.7043 32.9568 24.3146C32.8521 24.9249 32.535 25.4785 32.0616 25.8777C31.5881 26.2768 30.9889 26.4957 30.3696 26.4957C29.7504 26.4957 29.1511 26.2768 28.6777 25.8777C28.2042 25.4785 27.8871 24.9249 27.7824 24.3146C27.6777 23.7043 27.7921 23.0766 28.1055 22.5425C28.4188 22.0084 28.9108 21.6022 29.4946 21.3958V18.4427C29.4948 18.3769 29.4801 18.3119 29.4517 18.2525C29.4232 18.1931 29.3818 18.141 29.3303 18.0999C29.2789 18.0588 29.2189 18.0298 29.1548 18.0151C29.0906 18.0004 29.024 18.0004 28.9598 18.015C26.9018 18.5205 25.0676 19.6898 23.7408 21.3422C22.4141 22.9946 21.6686 25.038 21.6196 27.1566L19.1642 31.875L19.1401 31.9243C18.9611 32.335 18.9465 32.7988 19.0994 33.2201C19.2522 33.6413 19.5608 33.9878 19.9615 34.1883L19.9888 34.2014L22.4946 35.3488V38.7394C22.4946 39.2035 22.679 39.6487 23.0072 39.9768C23.3354 40.305 23.7805 40.4894 24.2446 40.4894H28.6196V41.3644C28.6196 41.5965 28.7118 41.819 28.8759 41.9831C29.04 42.1472 29.2626 42.2394 29.4946 42.2394H37.3445C37.4993 42.2409 37.6521 42.2032 37.7885 42.13C37.9425 42.046 38.0677 41.9177 38.1479 41.7617C38.2281 41.6057 38.2595 41.4291 38.2381 41.255L37.4243 34.7549Z" fill="url(#paint0_linear_2578_409)"/>
<defs>
<linearGradient id="paint0_linear_2578_409" x1="29.9332" y1="17.7588" x2="29.9332" y2="42.2394" gradientUnits="userSpaceOnUse">
<stop stop-color="#8378FF"/>
<stop offset="1" stop-color="#584AFF"/>
</linearGradient>
</defs>
</svg>
