<svg width="50" height="50" viewBox="0 0 50 50" fill="none" xmlns="http://www.w3.org/2000/svg">
<rect width="50" height="50" rx="14" fill="url(#paint0_linear_2578_6590)"/>
<path d="M36.0652 31.4467C36.6266 30.2823 36.9021 29.0007 36.8687 27.7084C36.8354 26.4161 36.4941 25.1505 35.8734 24.0165C35.2526 22.8826 34.3703 21.9132 33.2997 21.1887C32.229 20.4643 31.001 20.0058 29.7175 19.8513C29.2905 18.8584 28.6696 17.9607 27.8913 17.2107C27.113 16.4607 26.1928 15.8736 25.1848 15.4837C24.1767 15.0937 23.1009 14.9089 22.0205 14.9399C20.9401 14.9709 19.8768 15.2171 18.8927 15.6642C17.9087 16.1113 17.0237 16.7503 16.2897 17.5436C15.5556 18.337 14.9873 19.2688 14.6179 20.2846C14.2485 21.3004 14.0854 22.3796 14.1383 23.4592C14.1912 24.5388 14.459 25.5969 14.926 26.5717L14.1876 29.0813C14.105 29.3615 14.0995 29.6587 14.1716 29.9417C14.2437 30.2248 14.3908 30.4831 14.5973 30.6897C14.8038 30.8962 15.0622 31.0432 15.3452 31.1153C15.6283 31.1874 15.9255 31.1819 16.2056 31.0993L18.7153 30.361C19.5211 30.7481 20.385 31.0003 21.2726 31.1075C21.7038 32.1178 22.3354 33.0302 23.1293 33.7896C23.9231 34.5489 24.8627 35.1393 25.8912 35.5252C26.9197 35.9111 28.0158 36.0845 29.1132 36.0348C30.2106 35.985 31.2865 35.7133 32.2759 35.236L34.7855 35.9743C35.0655 36.0568 35.3626 36.0623 35.6456 35.9902C35.9285 35.9182 36.1867 35.7712 36.3932 35.5648C36.5997 35.3585 36.7468 35.1003 36.819 34.8174C36.8912 34.5345 36.8859 34.2374 36.8035 33.9573L36.0652 31.4467ZM34.4148 31.596L35.2456 34.4164L32.4262 33.5866C32.2225 33.5276 32.0038 33.5506 31.8168 33.6506C30.3206 34.4495 28.5716 34.6325 26.9424 34.1604C25.3133 33.6884 23.933 32.5988 23.0956 31.1237C24.2081 31.0076 25.2846 30.6628 26.2576 30.1111C27.2306 29.5593 28.079 28.8124 28.7497 27.9172C29.4204 27.022 29.8988 25.9979 30.155 24.9091C30.4112 23.8203 30.4397 22.6904 30.2385 21.59C31.2078 21.8185 32.1117 22.2667 32.8803 22.8999C33.6489 23.5331 34.2618 24.3345 34.6715 25.2422C35.0813 26.1498 35.277 27.1395 35.2436 28.1348C35.2102 29.1301 34.9485 30.1044 34.4788 30.9825C34.3776 31.1707 34.3547 31.391 34.4148 31.596Z" fill="white"/>
<defs>
<linearGradient id="paint0_linear_2578_6590" x1="25" y1="0" x2="25" y2="50" gradientUnits="userSpaceOnUse">
<stop stop-color="#7686FF"/>
<stop offset="1" stop-color="#334BFF"/>
</linearGradient>
</defs>
</svg>
