<svg width="50" height="50" viewBox="0 0 50 50" fill="none" xmlns="http://www.w3.org/2000/svg">
<rect width="50" height="50" rx="14" fill="url(#paint0_linear_2578_7063)"/>
<path d="M35.1941 18.926H32.7566V17.301C32.7566 17.0855 32.671 16.8789 32.5186 16.7265C32.3662 16.5741 32.1596 16.4885 31.9441 16.4885H17.3191C17.1036 16.4885 16.8969 16.5741 16.7446 16.7265C16.5922 16.8789 16.5066 17.0855 16.5066 17.301V18.926H14.0691C13.6381 18.926 13.2248 19.0972 12.92 19.402C12.6153 19.7067 12.4441 20.12 12.4441 20.551V22.176C12.4441 23.2535 12.8721 24.2868 13.634 25.0486C14.0112 25.4259 14.4591 25.7251 14.9519 25.9293C15.4448 26.1334 15.9731 26.2385 16.5066 26.2385H16.8773C17.3559 27.7553 18.2685 29.0985 19.5022 30.1023C20.7359 31.1061 22.2367 31.7263 23.8191 31.8864V34.3635H21.3816C21.1661 34.3635 20.9594 34.4491 20.8071 34.6015C20.6547 34.7539 20.5691 34.9605 20.5691 35.176C20.5691 35.3915 20.6547 35.5982 20.8071 35.7505C20.9594 35.9029 21.1661 35.9885 21.3816 35.9885H27.8816C28.0971 35.9885 28.3037 35.9029 28.4561 35.7505C28.6085 35.5982 28.6941 35.3915 28.6941 35.176C28.6941 34.9605 28.6085 34.7539 28.4561 34.6015C28.3037 34.4491 28.0971 34.3635 27.8816 34.3635H25.4441V31.8834C28.688 31.5553 31.3794 29.2793 32.3585 26.2385H32.7566C33.834 26.2385 34.8673 25.8105 35.6292 25.0486C36.3911 24.2868 36.8191 23.2535 36.8191 22.176V20.551C36.8191 20.12 36.6479 19.7067 36.3431 19.402C36.0384 19.0972 35.6251 18.926 35.1941 18.926ZM16.5066 24.6135C15.8601 24.6135 15.2401 24.3567 14.783 23.8996C14.3259 23.4425 14.0691 22.8225 14.0691 22.176V20.551H16.5066V23.801C16.5066 24.0719 16.5198 24.3427 16.5462 24.6135H16.5066ZM35.1941 22.176C35.1941 22.8225 34.9373 23.4425 34.4802 23.8996C34.023 24.3567 33.4031 24.6135 32.7566 24.6135H32.7058C32.7392 24.3134 32.7561 24.0116 32.7566 23.7096V20.551H35.1941V22.176Z" fill="white"/>
<defs>
<linearGradient id="paint0_linear_2578_7063" x1="25" y1="0" x2="25" y2="50" gradientUnits="userSpaceOnUse">
<stop stop-color="#FF9D5C"/>
<stop offset="1" stop-color="#FF781E"/>
</linearGradient>
</defs>
</svg>
