<svg width="50" height="50" viewBox="0 0 50 50" fill="none" xmlns="http://www.w3.org/2000/svg">
<rect y="0.000488281" width="50" height="50" rx="14" fill="url(#paint0_linear_2578_6913)"/>
<rect x="0.2175" y="0.217988" width="49.565" height="49.565" rx="13.7825" stroke="black" stroke-opacity="0.1" stroke-width="0.435"/>
<path d="M36.2867 19.9992C36.2106 19.9123 36.1169 19.8427 36.0119 19.7949C35.9068 19.7471 35.7927 19.7222 35.6773 19.7219H31.171L25.7242 13.4992C25.6479 13.4127 25.5542 13.3435 25.4491 13.2961C25.344 13.2486 25.2301 13.2241 25.1148 13.2241C24.9995 13.2241 24.8856 13.2486 24.7805 13.2961C24.6754 13.3435 24.5817 13.4127 24.5054 13.4992L19.0586 19.7219H14.5523C14.4365 19.7219 14.322 19.7467 14.2166 19.7945C14.1111 19.8423 14.0171 19.9122 13.9409 19.9993C13.8646 20.0864 13.8078 20.1889 13.7744 20.2997C13.7409 20.4106 13.7316 20.5273 13.7469 20.6421L15.2775 32.1248C15.3308 32.5145 15.5233 32.8717 15.8193 33.1308C16.1153 33.3898 16.4949 33.5332 16.8882 33.5344H33.3414C33.7347 33.5332 34.1143 33.3898 34.4103 33.1308C34.7063 32.8717 34.8988 32.5145 34.9521 32.1248L36.4827 20.6421C36.4978 20.5272 36.4881 20.4103 36.4543 20.2994C36.4205 20.1885 36.3633 20.0862 36.2867 19.9992ZM20.4023 30.2844C20.3749 30.286 20.3474 30.286 20.32 30.2844C20.1179 30.2854 19.9227 30.2111 19.7724 30.0759C19.6222 29.9407 19.5277 29.7543 19.5075 29.5532L18.9388 23.8657C18.9172 23.6513 18.9817 23.4371 19.1181 23.2702C19.2545 23.1034 19.4516 22.9975 19.666 22.976C19.8804 22.9545 20.0946 23.019 20.2614 23.1553C20.4283 23.2917 20.5341 23.4888 20.5557 23.7032L21.1244 29.3907C21.1472 29.605 21.0839 29.8195 20.9484 29.9871C20.813 30.1547 20.6166 30.2617 20.4023 30.2844ZM25.9273 29.4719C25.9273 29.6874 25.8417 29.8941 25.6893 30.0465C25.537 30.1988 25.3303 30.2844 25.1148 30.2844C24.8993 30.2844 24.6926 30.1988 24.5403 30.0465C24.3879 29.8941 24.3023 29.6874 24.3023 29.4719V23.7844C24.3023 23.5689 24.3879 23.3623 24.5403 23.2099C24.6926 23.0575 24.8993 22.9719 25.1148 22.9719C25.3303 22.9719 25.537 23.0575 25.6893 23.2099C25.8417 23.3623 25.9273 23.5689 25.9273 23.7844V29.4719ZM21.2178 19.7219L25.1148 15.2684L29.0118 19.7219H21.2178ZM31.2857 23.8657L30.717 29.5532C30.6969 29.7534 30.6031 29.9391 30.454 30.0742C30.3048 30.2093 30.1108 30.2842 29.9096 30.2844C29.8822 30.286 29.8547 30.286 29.8273 30.2844C29.7211 30.2738 29.6181 30.2423 29.5241 30.1918C29.4301 30.1413 29.347 30.0728 29.2794 29.9902C29.2119 29.9076 29.1613 29.8125 29.1306 29.7103C29.0998 29.6081 29.0894 29.5009 29.1001 29.3948L29.6689 23.7072C29.6904 23.4928 29.7963 23.2958 29.9631 23.1594C30.1299 23.023 30.3441 22.9585 30.5586 22.9801C30.773 23.0016 30.97 23.1075 31.1064 23.2743C31.2428 23.4411 31.3073 23.6553 31.2857 23.8698V23.8657Z" fill="white"/>
<defs>
<linearGradient id="paint0_linear_2578_6913" x1="25" y1="0.000488281" x2="25" y2="50.0005" gradientUnits="userSpaceOnUse">
<stop stop-color="#A6F471"/>
<stop offset="1" stop-color="#53B02C"/>
</linearGradient>
</defs>
</svg>
