<svg width="60" height="60" viewBox="0 0 60 60" fill="none" xmlns="http://www.w3.org/2000/svg">
<rect width="60" height="60" rx="15" fill="#E1F1FF"/>
<path d="M38.5137 20.8037H21.0137C20.3175 20.8037 19.6498 21.0803 19.1575 21.5726C18.6652 22.0648 18.3887 22.7325 18.3887 23.4287V35.6787C18.3887 36.3749 18.6652 37.0426 19.1575 37.5349C19.6498 38.0271 20.3175 38.3037 21.0137 38.3037H28.8887V40.0537H26.2637C26.0316 40.0537 25.809 40.1459 25.645 40.31C25.4809 40.4741 25.3887 40.6966 25.3887 40.9287C25.3887 41.1608 25.4809 41.3833 25.645 41.5474C25.809 41.7115 26.0316 41.8037 26.2637 41.8037H33.2637C33.4957 41.8037 33.7183 41.7115 33.8824 41.5474C34.0465 41.3833 34.1387 41.1608 34.1387 40.9287C34.1387 40.6966 34.0465 40.4741 33.8824 40.31C33.7183 40.1459 33.4957 40.0537 33.2637 40.0537H30.6387V38.3037H38.5137C39.2099 38.3037 39.8775 38.0271 40.3698 37.5349C40.8621 37.0426 41.1387 36.3749 41.1387 35.6787V23.4287C41.1387 22.7325 40.8621 22.0648 40.3698 21.5726C39.8775 21.0803 39.2099 20.8037 38.5137 20.8037ZM38.5137 36.5537H21.0137C20.7816 36.5537 20.559 36.4615 20.395 36.2974C20.2309 36.1333 20.1387 35.9108 20.1387 35.6787V33.9287H39.3887V35.6787C39.3887 35.9108 39.2965 36.1333 39.1324 36.2974C38.9683 36.4615 38.7457 36.5537 38.5137 36.5537Z" fill="url(#paint0_linear_2578_402)"/>
<defs>
<linearGradient id="paint0_linear_2578_402" x1="29.7637" y1="20.8037" x2="29.7637" y2="41.8037" gradientUnits="userSpaceOnUse">
<stop stop-color="#0089FF"/>
<stop offset="1" stop-color="#0078DF"/>
</linearGradient>
</defs>
</svg>
