<svg width="60" height="60" viewBox="0 0 60 60" fill="none" xmlns="http://www.w3.org/2000/svg">
<rect width="60" height="60" rx="15" fill="#E4EBFF"/>
<path d="M40.8001 25.5873V22.2493C40.8001 21.7854 40.6105 21.3404 40.2729 21.0124C39.9354 20.6843 39.4775 20.5 39.0001 20.5H19.1999C18.7225 20.5 18.2647 20.6843 17.9271 21.0124C17.5895 21.3404 17.3999 21.7854 17.3999 22.2493V36.2441C17.3999 36.7081 17.5895 37.153 17.9271 37.4811C18.2647 37.8091 18.7225 37.9934 19.1999 37.9934H32.7001V40.6175C32.6986 40.7717 32.7392 40.9235 32.8176 41.0576C32.896 41.1916 33.0095 41.3032 33.1465 41.3809C33.2836 41.4586 33.4394 41.4997 33.598 41.5C33.7567 41.5003 33.9127 41.4599 34.0501 41.3828L36.7501 39.8805L39.4501 41.3828C39.5875 41.4599 39.7435 41.5003 39.9022 41.5C40.0608 41.4997 40.2166 41.4586 40.3537 41.3809C40.4907 41.3032 40.6042 41.1916 40.6826 41.0576C40.761 40.9235 40.8016 40.7717 40.8001 40.6175V33.7808C41.3691 33.2513 41.8218 32.6154 42.1311 31.9113C42.4404 31.2072 42.5999 30.4496 42.5999 29.6841C42.5999 28.9185 42.4404 28.1609 42.1311 27.4568C41.8218 26.7527 41.3691 26.1168 40.8001 25.5873ZM29.1 31.8707H22.8C22.5613 31.8707 22.3323 31.7786 22.1636 31.6146C21.9948 31.4505 21.8999 31.228 21.8999 30.9961C21.8999 30.7641 21.9948 30.5416 22.1636 30.3776C22.3323 30.2135 22.5613 30.1214 22.8 30.1214H29.1C29.3387 30.1214 29.5676 30.2135 29.7364 30.3776C29.9052 30.5416 30 30.7641 30 30.9961C30 31.228 29.9052 31.4505 29.7364 31.6146C29.5676 31.7786 29.3387 31.8707 29.1 31.8707ZM29.1 28.372H22.8C22.5613 28.372 22.3323 28.2799 22.1636 28.1159C21.9948 27.9518 21.8999 27.7294 21.8999 27.4974C21.8999 27.2654 21.9948 27.0429 22.1636 26.8789C22.3323 26.7149 22.5613 26.6227 22.8 26.6227H29.1C29.3387 26.6227 29.5676 26.7149 29.7364 26.8789C29.9052 27.0429 30 27.2654 30 27.4974C30 27.7294 29.9052 27.9518 29.7364 28.1159C29.5676 28.2799 29.3387 28.372 29.1 28.372ZM39.0001 39.1097L37.2001 38.1082C37.0641 38.0327 36.9101 37.9929 36.7535 37.9929C36.5968 37.9929 36.4429 38.0327 36.3068 38.1082L34.5068 39.1097V34.9321C35.2196 35.2215 35.9844 35.3705 36.7568 35.3705C37.5293 35.3705 38.2941 35.2215 39.0069 34.9321L39.0001 39.1097ZM36.7501 33.6201C35.9491 33.6201 35.166 33.3892 34.5 32.9567C33.834 32.5242 33.3149 31.9095 33.0083 31.1903C32.7018 30.4711 32.6216 29.6797 32.7779 28.9162C32.9341 28.1527 33.3199 27.4513 33.8863 26.9009C34.4527 26.3504 35.1743 25.9755 35.96 25.8237C36.7456 25.6718 37.5599 25.7497 38.3 26.0476C39.04 26.3456 39.6726 26.85 40.1176 27.4973C40.5626 28.1446 40.8001 28.9056 40.8001 29.6841C40.8001 30.2009 40.6954 30.7128 40.4918 31.1903C40.2883 31.6678 39.99 32.1018 39.6139 32.4672C39.2378 32.8327 38.7913 33.1227 38.3 33.3205C37.8086 33.5183 37.282 33.6201 36.7501 33.6201Z" fill="url(#paint0_linear_2578_6285)"/>
<defs>
<linearGradient id="paint0_linear_2578_6285" x1="29.9999" y1="20.5" x2="29.9999" y2="41.5" gradientUnits="userSpaceOnUse">
<stop stop-color="#0064FF"/>
<stop offset="1" stop-color="#0049B9"/>
</linearGradient>
</defs>
</svg>
