<svg width="60" height="60" viewBox="0 0 60 60" fill="none" xmlns="http://www.w3.org/2000/svg">
<rect width="60" height="60" rx="15" fill="#EBE8FF"/>
<path d="M41 19C41.5303 19.0001 42.0391 19.211 42.4141 19.5859C42.789 19.9609 42.9999 20.4697 43 21V39C42.9999 39.5303 42.789 40.0391 42.4141 40.4141C42.0391 40.789 41.5303 40.9999 41 41H19C18.4697 40.9999 17.9609 40.7891 17.5859 40.4141C17.2109 40.0391 17.0001 39.5303 17 39V21C17.0001 20.4697 17.2109 19.9609 17.5859 19.5859C17.9609 19.2109 18.4697 19.0001 19 19H41ZM25.166 22.1318C24.9349 22.0004 24.6607 21.9658 24.4043 22.0361C24.1477 22.1066 23.9295 22.2766 23.7979 22.5078L19.7979 29.5078C19.7116 29.6589 19.666 29.83 19.666 30.0039C19.666 30.1779 19.7115 30.349 19.7979 30.5L23.7979 37.5C23.9305 37.7312 24.15 37.9 24.4072 37.9697C24.6644 38.0394 24.9388 38.0046 25.1699 37.8721C25.4012 37.7395 25.5699 37.52 25.6396 37.2627C25.7094 37.0055 25.6745 36.7312 25.542 36.5L21.8184 30L25.542 23.5C25.6735 23.2688 25.7081 22.9947 25.6377 22.7383C25.5673 22.4817 25.3972 22.2634 25.166 22.1318ZM35.208 22.0029C35.0771 22.0198 34.9504 22.0623 34.8359 22.1279C34.7216 22.1935 34.6216 22.2814 34.541 22.3857C34.4604 22.4902 34.4007 22.6099 34.3662 22.7373C34.3317 22.8647 34.323 22.998 34.3398 23.1289C34.3567 23.2597 34.3993 23.3856 34.4648 23.5L38.1885 30.0078L34.4707 36.5078C34.3393 36.738 34.3044 37.0109 34.374 37.2666C34.4438 37.5224 34.6126 37.7404 34.8428 37.8721C35.0731 38.0036 35.3466 38.0385 35.6025 37.9688C35.8585 37.8989 36.0764 37.7303 36.208 37.5L40.208 30.5C40.2958 30.348 40.3418 30.1755 40.3418 30C40.3418 29.8245 40.2958 29.652 40.208 29.5L36.208 22.5C36.1424 22.3856 36.0546 22.2857 35.9502 22.2051C35.8458 22.1245 35.7269 22.0648 35.5996 22.0303C35.4722 21.9957 35.3389 21.9861 35.208 22.0029ZM31.2812 22.2148C30.7395 22.1073 30.213 22.4593 30.1055 23.001L27.3799 36.7324C27.2724 37.2741 27.6243 37.8007 28.166 37.9082C28.7076 38.0156 29.2342 37.6636 29.3418 37.1221L32.0674 23.3896C32.1746 22.8482 31.8226 22.3225 31.2812 22.2148Z" fill="url(#paint0_linear_2578_6352)"/>
<defs>
<linearGradient id="paint0_linear_2578_6352" x1="30" y1="19" x2="30" y2="41" gradientUnits="userSpaceOnUse">
<stop stop-color="#8378FF"/>
<stop offset="1" stop-color="#584AFF"/>
</linearGradient>
</defs>
</svg>
