<svg width="50" height="50" viewBox="0 0 50 50" fill="none" xmlns="http://www.w3.org/2000/svg">
<rect width="50" height="50" rx="14" fill="url(#paint0_linear_2578_7414)"/>
<path d="M29.875 34.0479C30.4355 33.8271 30.9786 33.5647 31.5 33.2628V37.3751C31.5 37.5906 31.4144 37.7973 31.262 37.9496C31.1096 38.102 30.903 38.1876 30.6875 38.1876C30.472 38.1876 30.2653 38.102 30.113 37.9496C29.9606 37.7973 29.875 37.5906 29.875 37.3751V34.0479ZM31.0694 25.0668L25.3819 22.0331C25.1921 21.9362 24.9719 21.9177 24.7686 21.9816C24.5653 22.0455 24.3953 22.1867 24.2951 22.3747C24.195 22.5628 24.1727 22.7827 24.2331 22.987C24.2935 23.1913 24.4318 23.3638 24.6181 23.4671L29.3672 26.0001L31.0937 25.08L31.0694 25.0668ZM37.5694 22.0331L25.3819 15.5331C25.2643 15.4705 25.1332 15.4377 25 15.4377C24.8668 15.4377 24.7357 15.4705 24.6181 15.5331L12.4306 22.0331C12.3006 22.1024 12.1919 22.2057 12.1161 22.332C12.0403 22.4583 12.0002 22.6028 12.0002 22.7501C12.0002 22.8974 12.0403 23.0419 12.1161 23.1682C12.1919 23.2945 12.3006 23.3979 12.4306 23.4671L15.25 24.9713V29.8889C15.2491 30.288 15.396 30.6733 15.6623 30.9706C16.9928 32.4524 19.9737 34.9376 25 34.9376C26.6666 34.9514 28.3207 34.6495 29.875 34.0479V26.2713L29.3672 26.0001L25 28.3289L16.4515 23.7657L14.5391 22.7501L25 17.1713L35.4609 22.7501L33.5536 23.7657H33.5475L31.0937 25.08C31.2173 25.1513 31.3199 25.2539 31.3912 25.3774C31.4625 25.501 31.5 25.6411 31.5 25.7838V33.2628C32.5595 32.6512 33.5169 31.8778 34.3376 30.9706C34.604 30.6733 34.7508 30.288 34.75 29.8889V24.9713L37.5694 23.4671C37.6994 23.3979 37.8081 23.2945 37.8839 23.1682C37.9597 23.0419 37.9997 22.8974 37.9997 22.7501C37.9997 22.6028 37.9597 22.4583 37.8839 22.332C37.8081 22.2057 37.6994 22.1024 37.5694 22.0331Z" fill="white"/>
<defs>
<linearGradient id="paint0_linear_2578_7414" x1="25" y1="0" x2="25" y2="50" gradientUnits="userSpaceOnUse">
<stop stop-color="#55B4FF"/>
<stop offset="1" stop-color="#1A9AFF"/>
</linearGradient>
</defs>
</svg>
