<svg width="60" height="60" viewBox="0 0 60 60" fill="none" xmlns="http://www.w3.org/2000/svg">
<rect width="60" height="60" rx="15" fill="#E9ECF3"/>
<path d="M39.625 20.375H20.375C19.9109 20.375 19.4658 20.5594 19.1376 20.8876C18.8094 21.2158 18.625 21.6609 18.625 22.125V37.875C18.625 38.3391 18.8094 38.7842 19.1376 39.1124C19.4658 39.4406 19.9109 39.625 20.375 39.625H39.625C40.0891 39.625 40.5342 39.4406 40.8624 39.1124C41.1906 38.7842 41.375 38.3391 41.375 37.875V22.125C41.375 21.6609 41.1906 21.2158 40.8624 20.8876C40.5342 20.5594 40.0891 20.375 39.625 20.375ZM37.875 37H22.125C21.8929 37 21.6704 36.9078 21.5063 36.7437C21.3422 36.5796 21.25 36.3571 21.25 36.125V23.875C21.25 23.6429 21.3422 23.4204 21.5063 23.2563C21.6704 23.0922 21.8929 23 22.125 23C22.3571 23 22.5796 23.0922 22.7437 23.2563C22.9078 23.4204 23 23.6429 23 23.875V32.263L26.7559 28.5059C26.8372 28.4246 26.9337 28.36 27.0399 28.316C27.1462 28.272 27.26 28.2493 27.375 28.2493C27.49 28.2493 27.6038 28.272 27.7101 28.316C27.8163 28.36 27.9128 28.4246 27.9941 28.5059L30 30.513L34.888 25.625H31.75C31.5179 25.625 31.2954 25.5328 31.1313 25.3687C30.9672 25.2046 30.875 24.9821 30.875 24.75C30.875 24.5179 30.9672 24.2954 31.1313 24.1313C31.2954 23.9672 31.5179 23.875 31.75 23.875H37C37.2321 23.875 37.4546 23.9672 37.6187 24.1313C37.7828 24.2954 37.875 24.5179 37.875 24.75V30C37.875 30.2321 37.7828 30.4546 37.6187 30.6187C37.4546 30.7828 37.2321 30.875 37 30.875C36.7679 30.875 36.5454 30.7828 36.3813 30.6187C36.2172 30.4546 36.125 30.2321 36.125 30V26.862L30.6191 32.3691C30.5378 32.4504 30.4413 32.515 30.3351 32.559C30.2288 32.603 30.115 32.6257 30 32.6257C29.885 32.6257 29.7712 32.603 29.6649 32.559C29.5587 32.515 29.4622 32.4504 29.3809 32.3691L27.375 30.362L23 34.737V35.25H37.875C38.1071 35.25 38.3296 35.3422 38.4937 35.5063C38.6578 35.6704 38.75 35.8929 38.75 36.125C38.75 36.3571 38.6578 36.5796 38.4937 36.7437C38.3296 36.9078 38.1071 37 37.875 37Z" fill="url(#paint0_linear_2578_6314)"/>
<defs>
<linearGradient id="paint0_linear_2578_6314" x1="30" y1="20.375" x2="30" y2="39.625" gradientUnits="userSpaceOnUse">
<stop stop-color="#637599"/>
<stop offset="1" stop-color="#41506F"/>
</linearGradient>
</defs>
</svg>
