<svg width="60" height="60" viewBox="0 0 60 60" fill="none" xmlns="http://www.w3.org/2000/svg">
<rect width="60" height="60" rx="15" fill="#E4EBFF"/>
<path d="M34.0132 40.2754C34.0132 40.5075 33.921 40.73 33.7569 40.8941C33.5928 41.0582 33.3702 41.1504 33.1382 41.1504H26.1382C25.9061 41.1504 25.6836 41.0582 25.5195 40.8941C25.3554 40.73 25.2632 40.5075 25.2632 40.2754C25.2632 40.0433 25.3554 39.8208 25.5195 39.6567C25.6836 39.4926 25.9061 39.4004 26.1382 39.4004H33.1382C33.3702 39.4004 33.5928 39.4926 33.7569 39.6567C33.921 39.8208 34.0132 40.0433 34.0132 40.2754ZM41.0132 22.7754V35.0254C41.0132 35.7216 40.7366 36.3893 40.2443 36.8815C39.7521 37.3738 39.0844 37.6504 38.3882 37.6504H20.8882C20.192 37.6504 19.5243 37.3738 19.032 36.8815C18.5397 36.3893 18.2632 35.7216 18.2632 35.0254V22.7754C18.2632 22.0792 18.5397 21.4115 19.032 20.9192C19.5243 20.427 20.192 20.1504 20.8882 20.1504H38.3882C39.0844 20.1504 39.7521 20.427 40.2443 20.9192C40.7366 21.4115 41.0132 22.0792 41.0132 22.7754ZM33.5757 28.9004C33.5756 28.7598 33.5417 28.6213 33.4768 28.4966C33.4119 28.3719 33.3179 28.2646 33.2027 28.184L28.8277 25.1215C28.6966 25.0296 28.5428 24.9755 28.3831 24.965C28.2234 24.9545 28.0638 24.988 27.9218 25.0619C27.7798 25.1358 27.6608 25.2472 27.5778 25.384C27.4947 25.5208 27.4507 25.6778 27.4507 25.8379V31.9629C27.4507 32.123 27.4947 32.2799 27.5778 32.4168C27.6608 32.5536 27.7798 32.665 27.9218 32.7389C28.0638 32.8128 28.2234 32.8463 28.3831 32.8358C28.5428 32.8253 28.6966 32.7711 28.8277 32.6793L33.2027 29.6168C33.3179 29.5361 33.4119 29.4289 33.4768 29.3042C33.5417 29.1795 33.5756 29.041 33.5757 28.9004Z" fill="url(#paint0_linear_2578_424)"/>
<defs>
<linearGradient id="paint0_linear_2578_424" x1="29.6382" y1="20.1504" x2="29.6382" y2="41.1504" gradientUnits="userSpaceOnUse">
<stop stop-color="#0064FF"/>
<stop offset="1" stop-color="#0049B9"/>
</linearGradient>
</defs>
</svg>
