<svg width="60" height="60" viewBox="0 0 60 60" fill="none" xmlns="http://www.w3.org/2000/svg">
<rect width="60" height="60" rx="15" fill="#E2FAE0"/>
<path d="M39.0012 18.1641H24.1262C23.198 18.1641 22.3077 18.5328 21.6513 19.1892C20.995 19.8456 20.6262 20.7358 20.6262 21.6641V40.0391C20.6262 40.2711 20.7184 40.4937 20.8825 40.6578C21.0466 40.8219 21.2692 40.9141 21.5012 40.9141H37.2512C37.4833 40.9141 37.7058 40.8219 37.8699 40.6578C38.034 40.4937 38.1262 40.2711 38.1262 40.0391C38.1262 39.807 38.034 39.5844 37.8699 39.4203C37.7058 39.2562 37.4833 39.1641 37.2512 39.1641H22.3762C22.3762 38.6999 22.5606 38.2548 22.8888 37.9266C23.217 37.5984 23.6621 37.4141 24.1262 37.4141H39.0012C39.2333 37.4141 39.4558 37.3219 39.6199 37.1578C39.784 36.9937 39.8762 36.7711 39.8762 36.5391V19.0391C39.8762 18.807 39.784 18.5844 39.6199 18.4203C39.4558 18.2562 39.2333 18.1641 39.0012 18.1641ZM36.3762 28.6641L33.5751 26.5641C33.4994 26.5073 33.4073 26.4766 33.3126 26.4766C33.218 26.4766 33.1259 26.5073 33.0501 26.5641L30.2512 28.6641V19.9141H36.3762V28.6641Z" fill="url(#paint0_linear_2578_416)"/>
<defs>
<linearGradient id="paint0_linear_2578_416" x1="30.2512" y1="18.1641" x2="30.2512" y2="40.9141" gradientUnits="userSpaceOnUse">
<stop stop-color="#1BCF5A"/>
<stop offset="1" stop-color="#009E37"/>
</linearGradient>
</defs>
</svg>
