<svg width="60" height="60" viewBox="0 0 60 60" fill="none" xmlns="http://www.w3.org/2000/svg">
<rect width="60" height="60" rx="15" fill="#E2FAE0"/>
<path d="M30.0001 15.6001C27.1521 15.6001 24.368 16.4446 21.9999 18.0269C19.6318 19.6092 17.7861 21.8582 16.6962 24.4895C15.6063 27.1207 15.3212 30.0161 15.8768 32.8094C16.4324 35.6027 17.8039 38.1686 19.8178 40.1824C21.8316 42.1963 24.3975 43.5678 27.1908 44.1234C29.9841 44.679 32.8795 44.3939 35.5107 43.304C38.142 42.2141 40.391 40.3684 41.9733 38.0003C43.5556 35.6322 44.4001 32.8481 44.4001 30.0001C44.3961 26.1822 42.8776 22.5219 40.178 19.8222C37.4783 17.1226 33.818 15.6041 30.0001 15.6001ZM34.3021 35.7795C34.1647 36.0391 33.9299 36.2334 33.6492 36.3199C33.3685 36.4064 33.065 36.3778 32.8053 36.2406C31.943 35.777 30.9792 35.5344 30.0001 35.5344C29.021 35.5344 28.0572 35.777 27.1949 36.2406C26.9359 36.3707 26.6363 36.3942 26.3603 36.3061C26.0842 36.2179 25.8537 36.025 25.7182 35.7689C25.5827 35.5127 25.553 35.2136 25.6354 34.9358C25.7178 34.658 25.9059 34.4235 26.1592 34.2827C27.3427 33.6567 28.6612 33.3295 30.0001 33.3295C31.339 33.3295 32.6575 33.6567 33.841 34.2827C34.1006 34.4201 34.295 34.6549 34.3815 34.9356C34.4679 35.2163 34.4394 35.5198 34.3021 35.7795ZM36.5175 31.9026C36.3794 32.1618 36.144 32.3555 35.863 32.4412C35.5821 32.5269 35.2786 32.4975 35.0193 32.3595C33.4748 31.5365 31.7516 31.1061 30.0015 31.1061C28.2514 31.1061 26.5282 31.5365 24.9836 32.3595C24.7249 32.4916 24.4247 32.5168 24.1476 32.4297C23.8705 32.3426 23.6386 32.1501 23.5021 31.8937C23.3655 31.6373 23.3352 31.3375 23.4175 31.059C23.4999 30.7804 23.6884 30.5453 23.9424 30.4044C25.8072 29.41 27.8881 28.8898 30.0015 28.8898C32.1149 28.8898 34.1958 29.41 36.0606 30.4044C36.1892 30.4729 36.303 30.5661 36.3955 30.6787C36.488 30.7912 36.5574 30.9209 36.5997 31.0603C36.6421 31.1998 36.6565 31.3462 36.6421 31.4912C36.6277 31.6362 36.5849 31.7769 36.5161 31.9053L36.5175 31.9026ZM38.7329 28.0256C38.6644 28.1541 38.5712 28.2677 38.4588 28.3601C38.3463 28.4525 38.2168 28.5219 38.0775 28.5642C37.9382 28.6065 37.792 28.6209 37.6472 28.6067C37.5023 28.5924 37.3617 28.5498 37.2333 28.4812C35.009 27.2898 32.5248 26.6664 30.0015 26.6664C27.4782 26.6664 24.994 27.2898 22.7696 28.4812C22.5104 28.6196 22.2067 28.6494 21.9255 28.564C21.6443 28.4785 21.4085 28.2849 21.2701 28.0256C21.1317 27.7664 21.1019 27.4627 21.1873 27.1815C21.2727 26.9003 21.4664 26.6645 21.7256 26.5261C24.2714 25.1637 27.1141 24.4508 30.0015 24.4508C32.8889 24.4508 35.7316 25.1637 38.2773 26.5261C38.406 26.5947 38.5198 26.6881 38.6123 26.8008C38.7048 26.9135 38.7742 27.0434 38.8164 27.1829C38.8586 27.3225 38.8728 27.469 38.8582 27.6141C38.8437 27.7592 38.8006 27.9 38.7315 28.0284L38.7329 28.0256Z" fill="url(#paint0_linear_2578_6368)"/>
<defs>
<linearGradient id="paint0_linear_2578_6368" x1="30.0001" y1="15.6001" x2="30.0001" y2="44.4001" gradientUnits="userSpaceOnUse">
<stop stop-color="#1BCF5A"/>
<stop offset="1" stop-color="#009E37"/>
</linearGradient>
</defs>
</svg>
