<svg width="60" height="60" viewBox="0 0 60 60" fill="none" xmlns="http://www.w3.org/2000/svg">
<rect width="60" height="60" rx="15" fill="#E1F1FF"/>
<path d="M43.125 23.7267C42.9933 23.6957 42.8563 23.6918 42.723 23.7155C42.5897 23.7391 42.4631 23.7898 42.3515 23.864L38.4328 26.3831C38.3688 26.4242 38.3164 26.4799 38.2802 26.5453C38.244 26.6106 38.225 26.6836 38.2251 26.7577V33.2405C38.225 33.3146 38.244 33.3876 38.2802 33.453C38.3164 33.5183 38.3688 33.574 38.4328 33.6152L42.3737 36.1489C42.5212 36.2438 42.6937 36.2962 42.8709 36.3C43.0482 36.3038 43.2229 36.2588 43.3746 36.1703C43.515 36.0842 43.6301 35.9648 43.709 35.8236C43.7878 35.6824 43.8278 35.524 43.825 35.3636V24.5987C43.8251 24.3991 43.7564 24.2051 43.6296 24.0472C43.5029 23.8894 43.3254 23.7766 43.125 23.7267Z" fill="url(#paint0_linear_2578_6332)"/>
<path d="M36.1251 23.4668V36.5334C36.1251 37.0285 35.9374 37.5033 35.6033 37.8534C35.2691 38.2034 34.8159 38.4001 34.3433 38.4001H18.307C17.8344 38.4001 17.3812 38.2034 17.047 37.8534C16.7129 37.5033 16.5251 37.0285 16.5251 36.5334V23.4668C16.5251 22.9717 16.7129 22.4969 17.047 22.1468C17.3812 21.7968 17.8344 21.6001 18.307 21.6001H34.3433C34.8159 21.6001 35.2691 21.7968 35.6033 22.1468C35.9374 22.4969 36.1251 22.9717 36.1251 23.4668Z" fill="url(#paint1_linear_2578_6332)"/>
<defs>
<linearGradient id="paint0_linear_2578_6332" x1="41.0251" y1="23.7002" x2="41.0251" y2="36.3002" gradientUnits="userSpaceOnUse">
<stop stop-color="#0089FF"/>
<stop offset="1" stop-color="#0078DF"/>
</linearGradient>
<linearGradient id="paint1_linear_2578_6332" x1="26.3251" y1="21.6001" x2="26.3251" y2="38.4001" gradientUnits="userSpaceOnUse">
<stop stop-color="#0089FF"/>
<stop offset="1" stop-color="#0078DF"/>
</linearGradient>
</defs>
</svg>
