<svg width="60" height="60" viewBox="0 0 60 60" fill="none" xmlns="http://www.w3.org/2000/svg">
<rect width="60" height="60" rx="15" fill="#FEECDF"/>
<path d="M39.625 20.375H20.375C19.9109 20.375 19.4658 20.5594 19.1376 20.8876C18.8094 21.2158 18.625 21.6609 18.625 22.125V37.875C18.625 38.3391 18.8094 38.7842 19.1376 39.1124C19.4658 39.4406 19.9109 39.625 20.375 39.625H21.8395C22.0051 39.6251 22.1673 39.5781 22.3073 39.4896C22.4473 39.4012 22.5593 39.2748 22.6303 39.1252C23.0558 38.2268 23.7276 37.4678 24.5675 36.9362C25.4074 36.4047 26.381 36.1225 27.375 36.1225C28.369 36.1225 29.3426 36.4047 30.1825 36.9362C31.0224 37.4678 31.6942 38.2268 32.1197 39.1252C32.1907 39.2748 32.3027 39.4012 32.4427 39.4896C32.5827 39.5781 32.7449 39.6251 32.9105 39.625H39.625C40.0891 39.625 40.5342 39.4406 40.8624 39.1124C41.1906 38.7842 41.375 38.3391 41.375 37.875V22.125C41.375 21.6609 41.1906 21.2158 40.8624 20.8876C40.5342 20.5594 40.0891 20.375 39.625 20.375ZM27.375 34.375C26.6828 34.375 26.0061 34.1697 25.4305 33.7851C24.8549 33.4006 24.4063 32.8539 24.1414 32.2144C23.8765 31.5749 23.8072 30.8711 23.9423 30.1922C24.0773 29.5133 24.4106 28.8896 24.9001 28.4001C25.3896 27.9106 26.0133 27.5773 26.6922 27.4423C27.3711 27.3072 28.0749 27.3765 28.7144 27.6414C29.3539 27.9063 29.9006 28.3549 30.2851 28.9305C30.6697 29.5061 30.875 30.1828 30.875 30.875C30.875 31.8033 30.5063 32.6935 29.8499 33.3499C29.1935 34.0063 28.3033 34.375 27.375 34.375ZM39.625 37.875H33.4377C33.0562 37.2173 32.57 36.6262 31.9983 36.125H37C37.2321 36.125 37.4546 36.0328 37.6187 35.8687C37.7828 35.7046 37.875 35.4821 37.875 35.25V24.75C37.875 24.5179 37.7828 24.2954 37.6187 24.1313C37.4546 23.9672 37.2321 23.875 37 23.875H23C22.7679 23.875 22.5454 23.9672 22.3813 24.1313C22.2172 24.2954 22.125 24.5179 22.125 24.75V35.25C22.1249 35.4441 22.1893 35.6326 22.3081 35.7861C22.4269 35.9395 22.5934 36.0491 22.7812 36.0977C22.1963 36.6044 21.6999 37.2051 21.3123 37.875H20.375V22.125H39.625V37.875Z" fill="url(#paint0_linear_2578_431)"/>
<defs>
<linearGradient id="paint0_linear_2578_431" x1="30" y1="20.375" x2="30" y2="39.625" gradientUnits="userSpaceOnUse">
<stop stop-color="#FF9500"/>
<stop offset="1" stop-color="#FF8000"/>
</linearGradient>
</defs>
</svg>
