<svg width="160" height="37" viewBox="0 0 160 37" fill="none" xmlns="http://www.w3.org/2000/svg">
<mask id="mask0_2578_3944" style="mask-type:luminance" maskUnits="userSpaceOnUse" x="0" y="0" width="160" height="37">
<path d="M160 0H0V37H160V0Z" fill="white"/>
</mask>
<g mask="url(#mask0_2578_3944)">
<path d="M20.9049 18.0221C20.9082 17.1804 20.7909 16.3425 20.5563 15.5327C20.3087 14.813 19.8201 14.1961 19.1698 13.7818C18.4842 13.3207 16.2781 13.1221 16.144 13.1221H4.76851C4.6383 13.1221 2.43214 13.3282 1.74271 13.7893C1.09377 14.2017 0.605409 14.8157 0.356202 15.5327C0.12097 16.3412 0.00110086 17.1777 0 18.0183V30.0156H3.23263V19.0981C3.21611 18.4782 3.25973 17.858 3.36286 17.2461C3.44862 16.8622 3.67821 16.5239 4.00632 16.2975C4.37166 16.0438 4.81094 15.9123 5.25878 15.9226H6.79082C7.096 15.8938 7.40355 15.9441 7.68257 16.0684C7.96159 16.1928 8.20224 16.387 8.38033 16.6312C8.64217 17.0911 8.79039 17.6047 8.81314 18.1308V30.0268H12.0802V18.1383C12.1018 17.6121 12.2502 17.0983 12.513 16.6387C12.6903 16.3945 12.9302 16.2004 13.2087 16.0758C13.4871 15.9514 13.7941 15.9012 14.0987 15.9301H15.6307C16.0776 15.919 16.5159 16.0506 16.8794 16.305C17.2183 16.5233 17.4594 16.8599 17.5535 17.2461C17.6528 17.8571 17.6951 18.4757 17.6799 19.0943V30.0268H20.9163V18.0297L20.9049 18.0221Z" fill="#FF7B01"/>
<path d="M67.1499 36.4261V33.5617C67.6693 33.6277 68.1925 33.6615 68.7164 33.663C69.3774 33.7064 70.0384 33.577 70.6315 33.288C71.0525 33.0347 71.3572 32.6316 71.4818 32.1633C71.6248 31.6635 71.6949 30.1475 71.6924 27.6157V13.2979H74.9289V27.0983C74.9739 29.0292 74.883 30.9607 74.6569 32.8794C74.4886 33.9414 73.9083 34.899 73.0368 35.5525C72.1405 36.2473 70.814 36.5948 69.0572 36.5948C68.4174 36.5976 67.7788 36.541 67.1499 36.4261Z" fill="#FF7B01"/>
<path d="M79.479 21.5092C79.479 19.0247 80.3178 16.984 81.9954 15.3868C82.8027 14.6089 83.7606 13.9969 84.8131 13.5868C85.8655 13.1767 86.9911 12.9767 88.1236 12.9987C89.2533 12.9779 90.3761 13.1756 91.4277 13.5802C92.4792 13.9849 93.439 14.5887 94.2518 15.3569C95.9524 16.9265 96.8027 18.9772 96.8027 21.5092C96.8027 24.041 95.955 26.0955 94.2595 27.6727C93.448 28.4433 92.4887 29.0491 91.4369 29.455C90.3852 29.8611 89.2616 30.0593 88.1312 30.0384C86.991 30.0678 85.8565 29.8704 84.7966 29.4579C83.7366 29.0454 82.7732 28.4267 81.9647 27.6389C80.3076 26.0418 79.479 23.9986 79.479 21.5092ZM82.8994 21.5092C82.8724 22.2289 82.9942 22.9466 83.2574 23.6192C83.5207 24.2917 83.92 24.9053 84.4314 25.4232C84.9171 25.9086 85.4969 26.2943 86.1368 26.5576C86.7767 26.8207 87.4639 26.9564 88.1581 26.9564C88.8523 26.9564 89.5393 26.8207 90.1793 26.5576C90.8192 26.2943 91.3991 25.9086 91.8848 25.4232C92.3861 24.9026 92.7772 24.2902 93.0356 23.6209C93.2939 22.9517 93.4144 22.2391 93.3901 21.5242C93.4159 20.8062 93.2935 20.0906 93.0303 19.4199C92.767 18.7493 92.3684 18.1377 91.858 17.6213C91.383 17.1261 90.8075 16.7335 90.1683 16.4688C89.5292 16.2041 88.8405 16.0731 88.1466 16.0842C87.4424 16.06 86.7412 16.1849 86.0908 16.4501C85.4404 16.7154 84.856 17.1148 84.3777 17.6213C83.3859 18.676 82.8551 20.0688 82.8994 21.5017V21.5092Z" fill="#FF7B01"/>
<path d="M142.677 21.5082C142.677 19.0238 143.517 16.983 145.197 15.3859C146.003 14.6078 146.961 13.9957 148.014 13.5856C149.066 13.1755 150.192 12.9756 151.325 12.9978C152.455 12.9787 153.578 13.1785 154.629 13.5858C155.68 13.9931 156.639 14.5997 157.449 15.371C159.15 16.9406 160 18.9913 160 21.5233C160 24.0551 159.152 26.1047 157.457 27.6717C156.646 28.4427 155.687 29.0487 154.634 29.4547C153.583 29.8607 152.459 30.0588 151.329 30.0374C150.189 30.0655 149.055 29.8674 147.994 29.4551C146.935 29.0427 145.971 28.4246 145.162 27.638C143.505 26.0408 142.677 23.9976 142.677 21.5082ZM146.097 21.5082C146.071 22.2279 146.193 22.9453 146.456 23.6178C146.719 24.2902 147.118 24.9039 147.629 25.4222C148.114 25.9076 148.694 26.2934 149.334 26.5566C149.974 26.8198 150.662 26.9554 151.355 26.9554C152.049 26.9554 152.737 26.8198 153.377 26.5566C154.017 26.2934 154.597 25.9076 155.082 25.4222C155.584 24.9017 155.975 24.2892 156.233 23.62C156.491 22.9508 156.611 22.2382 156.587 21.5233C156.614 20.8052 156.49 20.0896 156.227 19.419C155.965 18.7484 155.566 18.1367 155.055 17.6203C154.581 17.1256 154.006 16.7333 153.367 16.4686C152.729 16.2039 152.041 16.0727 151.347 16.0832C150.643 16.0588 149.942 16.1835 149.291 16.4488C148.641 16.7141 148.057 17.1138 147.579 17.6203C146.584 18.6738 146.053 20.0672 146.097 21.5007V21.5082Z" fill="#FF7B01"/>
<path d="M115.218 15.4691C113.575 13.9193 111.371 13.071 109.09 13.1108C107.095 13.0716 105.15 13.7191 103.594 14.9405V6.69238H100.43V21.314V21.3364C100.43 21.4339 100.43 21.5239 100.43 21.6214C100.43 24.1207 101.261 26.1652 102.923 27.755C103.733 28.5403 104.697 29.1574 105.757 29.5691C106.816 29.9807 107.95 30.1786 109.09 30.1506C110.22 30.1712 111.343 29.9732 112.395 29.5678C113.446 29.1626 114.406 28.5579 115.218 27.7886C116.917 26.2091 117.763 24.1532 117.761 21.6214C117.759 19.0894 116.911 17.0387 115.218 15.4691ZM112.843 25.513C112.358 25.9984 111.778 26.384 111.138 26.6473C110.498 26.9105 109.811 27.0461 109.117 27.0461C108.423 27.0461 107.735 26.9105 107.095 26.6473C106.456 26.384 105.876 25.9984 105.39 25.513C104.879 24.9951 104.479 24.3815 104.216 23.7089C103.953 23.0363 103.831 22.3186 103.858 21.5988C103.82 20.1762 104.347 18.7945 105.329 17.7447C105.803 17.2332 106.385 16.8279 107.034 16.5568C107.683 16.2857 108.384 16.1551 109.09 16.1738C109.784 16.1627 110.472 16.2937 111.112 16.5585C111.751 16.8232 112.326 17.2157 112.801 17.7111C113.311 18.2276 113.71 18.8393 113.973 19.5099C114.236 20.1804 114.359 20.896 114.334 21.6139C114.36 22.3278 114.242 23.0398 113.986 23.709C113.73 24.3781 113.342 24.9912 112.843 25.513Z" fill="#FF7B01"/>
<path d="M138.942 29.79C138.969 29.2876 138.981 28.729 138.981 28.1029L138.942 27.9566V21.3957C138.919 18.9188 138.07 16.9055 136.395 15.3559C135.585 14.5892 134.629 13.9864 133.581 13.5818C132.531 13.1771 131.413 12.9787 130.286 12.9978C129.153 12.9756 128.027 13.1755 126.975 13.5856C125.922 13.9957 124.965 14.6078 124.158 15.3859C122.478 16.983 121.638 19.0238 121.638 21.5082C121.638 23.9927 122.457 26.0359 124.096 27.638C124.906 28.425 125.87 29.0435 126.93 29.4558C127.991 29.8683 129.126 30.0661 130.266 30.0374C132.251 30.0727 134.187 29.4297 135.739 28.2191V28.6877C135.766 29.4488 135.709 30.2103 135.571 30.9598C135.418 31.4808 135.158 31.9655 134.806 32.3844C134.329 32.9471 133.717 33.3851 133.024 33.659C132.21 34.0127 131.329 34.1916 130.439 34.184C128.739 34.1776 127.095 33.6006 125.778 32.5494L123.682 34.8663C125.542 36.2846 127.838 37.0422 130.194 37.0146C131.695 37.0359 133.184 36.7525 134.568 36.1822C135.706 35.7434 136.714 35.0333 137.502 34.1164C138.095 33.4191 138.518 32.5985 138.739 31.717C138.814 31.353 138.866 30.985 138.896 30.6148L138.953 30.7311L138.942 29.79ZM134.009 25.3998C133.523 25.8852 132.943 26.2708 132.303 26.5341C131.663 26.7974 130.976 26.933 130.282 26.933C129.587 26.933 128.901 26.7974 128.261 26.5341C127.621 26.2708 127.041 25.8852 126.555 25.3998C126.045 24.8815 125.646 24.2677 125.383 23.5953C125.119 22.9228 124.998 22.2053 125.023 21.4857C124.985 20.0562 125.52 18.6688 126.513 17.6203C126.987 17.1086 127.569 16.7032 128.218 16.4321C128.867 16.1609 129.569 16.0304 130.274 16.0494C130.968 16.0389 131.656 16.1702 132.294 16.4348C132.933 16.6996 133.507 17.0918 133.982 17.5867C134.493 18.1029 134.891 18.7146 135.154 19.3852C135.417 20.0559 135.539 20.7715 135.514 21.4895C135.539 22.2064 135.421 22.921 135.162 23.5922C134.903 24.2636 134.512 24.8779 134.009 25.3998Z" fill="#FF7B01"/>
<path d="M24.6125 21.5089C24.6125 19.0245 25.4513 16.9837 27.1289 15.3866C28.7848 13.8565 30.974 13.0017 33.2511 12.9961C35.5281 12.9906 37.7218 13.8346 39.3854 15.3566C41.0911 16.9262 41.9426 18.9769 41.9401 21.5089C41.9375 24.0407 41.0898 26.0953 39.3969 27.6724C38.5853 28.443 37.626 29.0488 36.5743 29.4548C35.5225 29.8608 34.3991 30.059 33.2687 30.0381C32.1284 30.0676 30.9939 29.8701 29.9339 29.4577C28.8739 29.0451 27.9106 28.4264 27.1021 27.6386C25.4424 26.0415 24.6125 23.9983 24.6125 21.5089ZM28.0329 21.5089C28.0066 22.2285 28.1287 22.9461 28.3919 23.6186C28.6552 24.2911 29.054 24.9047 29.5649 25.4229C30.0509 25.9084 30.6311 26.2942 31.2713 26.5575C31.9116 26.8208 32.5991 26.9565 33.2936 26.9565C33.988 26.9565 34.6755 26.8208 35.3157 26.5575C35.956 26.2942 36.5361 25.9084 37.0221 25.4229C37.5235 24.9024 37.9146 24.2899 38.1729 23.6207C38.4313 22.9514 38.5517 22.2388 38.5274 21.5239C38.5532 20.8059 38.4308 20.0903 38.1676 19.4197C37.9044 18.749 37.5057 18.1374 36.9954 17.621C36.5194 17.1269 35.9437 16.7351 35.3048 16.4704C34.6658 16.2059 33.9777 16.0742 33.284 16.0839C32.5792 16.0591 31.8771 16.1838 31.226 16.449C30.5749 16.7143 29.99 17.1141 29.5113 17.621C28.5194 18.6757 27.9887 20.0686 28.0329 21.5014V21.5089Z" fill="#FF7B01"/>
<path d="M66.9928 18.1461C66.9954 17.3047 66.8794 16.467 66.6481 15.6567C66.3997 14.9383 65.9112 14.3228 65.2616 13.9096C64.5722 13.4484 62.3661 13.231 62.2358 13.2385H50.8603C50.7263 13.2385 48.5201 13.4484 47.8345 13.9096C47.1849 14.3228 46.6965 14.9383 46.448 15.6567C46.2135 16.4664 46.0961 17.3043 46.0994 18.1461V30.1432H49.3359V19.2221C49.3205 18.6035 49.3627 17.9848 49.4623 17.3737C49.5478 16.9878 49.779 16.6477 50.1096 16.4214C50.4731 16.167 50.9114 16.0354 51.3583 16.0465H52.8903C53.1949 16.0183 53.5016 16.069 53.7799 16.1934C54.0582 16.3177 54.2982 16.5115 54.476 16.7551C54.7378 17.215 54.8861 17.7287 54.9088 18.2547V30.1507H58.1759V18.2623C58.2005 17.7365 58.3486 17.2233 58.6087 16.7626C58.7875 16.5192 59.0283 16.3258 59.3072 16.2015C59.5859 16.0772 59.8931 16.0263 60.1982 16.0541H61.7303C62.1781 16.0438 62.6174 16.1752 62.9827 16.4289C63.3109 16.6575 63.5414 16.9966 63.6299 17.3812C63.7295 17.991 63.7718 18.6084 63.7563 19.2258V30.1507H66.989V18.1536L66.9928 18.1461Z" fill="#FF7B01"/>
<path d="M66.6672 0.375L73.4962 13.7256L59.8228 6.21612L66.6672 0.375Z" fill="#FF7B01"/>
<path d="M80.4405 0L73.6113 13.3506L87.2849 5.84112L80.4405 0Z" fill="#FF7B01"/>
</g>
</svg>
